<?xml version="1.0"?><svg version="1.2" baseProfile="tiny-ps" viewBox="0 0 300 300" xmlns="http://www.w3.org/2000/svg" xmlns:xlink="http://www.w3.org/1999/xlink"><title>Beauty Butler</title><g><g fill="#916650" transform="matrix(.1 0 0 -.1 0 300)"><path d="M1000 2570c-93-11-185-37-260-73l-65-30-56-56-55-56-28-57-28-57-11-70-11-71 12-60c6-34 22-84 35-113l24-52 44-49 44-50 73-47c40-26 89-53 109-60l37-12-61-22c-87-31-142-66-197-124l-47-52-25-54-25-55-11-67-12-66 12-69 12-69 26-52c38-75 81-123 146-167l58-38 77-26c100-32 179-46 265-46h68v20h-47c-99 0-206 44-270 112-45 47-101 144-119 206l-16 53 1 82v82l21 60 20 60 45 65c24 36 60 78 80 93 40 32 111 66 138 67h17v10c0 6-7 10-16 10s-43 14-76 32l-59 31-46 51-46 51-33 70-34 70-9 65-9 65 9 62c15 112 70 215 153 291l47 44 47 21 47 22 313 3 314 3-4-100-3-100-21-27c-11-15-33-37-48-48l-27-21-214-3-214-3 34-44 33-44 11-51 11-51v-240l20-38c22-44 70-88 106-97 25-7 33-24 11-24-8 0-33-13-55-30l-41-30-21-39-20-40V860h200v1370h437l5 108 5 107 22 45c13 25 33 55 44 68l20 22-424-1-424-2-65-7zm850-328v-12h35c51 0 135-20 180-43 97-48 169-135 213-257l23-65v-171l-20-58c-52-147-139-242-264-286l-51-18 44-12c120-31 218-136 271-286l20-58V805l-23-65c-58-160-163-258-306-289l-53-11h-541l4 103 3 102 23 33c13 18 38 40 55 50l32 17 202 5 202 5-29 43-29 43-10 50-11 50v230l-20 40-21 39-41 30c-22 17-47 30-55 30-22 0-14 17 11 24 36 9 84 53 106 97l20 38v672l-97-3-98-3-3-682-2-683h-440v-80c0-43-5-102-11-130l-11-51-34-45-35-45 473 4 473 4 70 17c39 10 103 33 142 51l73 34 55 52 55 52 31 62 30 61 11 67 11 67-11 66-11 66-29 61-29 62-42 43c-54 55-122 98-188 119-29 9-53 19-53 22s20 14 45 24c24 10 76 41 114 68l70 49 41 54c50 66 76 132 85 212l7 59-11 60-11 60-30 61-30 61-55 52-55 52-73 33c-94 43-186 65-303 73l-94 6v-11z"/></g><g fill="#3e4e66" transform="matrix(.1 0 0 -.1 0 300)"><path d="M1850 2242v-12h35c51 0 135-20 180-43 97-48 169-135 213-257l23-65v-171l-20-58c-52-147-139-242-264-286l-51-18 44-12c120-31 218-136 271-286l20-58V805l-23-65c-58-160-163-258-306-289l-53-11h-541l4 103 3 102 23 33c13 18 38 40 55 50l32 17 202 5 202 5-29 43-29 43-10 50-11 50v230l-20 40-21 39-41 30c-22 17-47 30-55 30-22 0-14 17 11 24 36 9 84 53 106 97l20 38v672l-97-3-98-3-3-682-2-683h-440v-80c0-43-5-102-11-130l-11-51-34-45-35-45 473 4 473 4 70 17c39 10 103 33 142 51l73 34 55 52 55 52 31 62 30 61 11 67 11 67-11 66-11 66-29 61-29 62-42 43c-54 55-122 98-188 119-29 9-53 19-53 22s20 14 45 24c24 10 76 41 114 68l70 49 41 54c50 66 76 132 85 212l7 59-11 60-11 60-30 61-30 61-55 52-55 52-73 33c-94 43-186 65-303 73l-94 6v-11z"/></g></g></svg>