<?xml version="1.0" encoding="utf-8"?>
<svg baseProfile="tiny" fill="none" height="1000" version="1.2" viewBox="0 0 1000 1000" width="1000" xmlns="http://www.w3.org/2000/svg">
<g filter="url(#filter0_di_7844_7)">
<path d="M835.286 688.611L834.689 681.327L833.828 676.437C833.377 674.58 832.982 672.556 832.593 670.566C831.989 667.457 831.42 664.514 830.518 661.746L826.424 649.628C823.656 642.651 820.283 635.646 816.446 628.954C812.976 623.187 808.993 617.518 804.649 612.147C791.236 595.626 773.618 581.797 753.682 572.156C742.683 567.022 733.114 563.071 719.527 559.266L709.792 556.532L719.52 553.784C737.236 548.776 762.106 532.748 770.197 526.995C789.196 513.459 804.407 497.73 815.426 480.242C826.896 462.052 833.572 442.24 835.286 421.364C835.494 418.916 835.646 416.446 835.757 413.949C835.917 411.319 836.028 408.94 835.993 407.021C835.945 404.781 835.889 402.381 835.757 400.016L835.279 392.524C835.063 387.898 834.425 383.279 833.391 378.75C831.858 370.187 829.505 361.819 826.39 353.749C823.579 346.682 820.2 339.691 816.37 333.013C812.872 327.204 808.896 321.528 804.559 316.185C791.174 299.685 773.562 285.856 753.633 276.194C736.806 268.382 718.979 262.302 700.66 258.156C677.796 252.939 654.244 250.184 630.665 249.962H617.113V257.523H630.7C652.766 257.6 674.624 262.712 693.742 272.883C707.648 280.861 719.618 290.92 729.409 302.822C739.533 315.253 747.936 328.797 754.41 343.085C755.645 345.242 756.589 347.843 757.505 350.348C758.164 352.135 758.817 353.965 759.656 355.739L760.586 358.57C761.835 362.417 763.126 366.403 764.194 370.639C765.596 376.19 766.63 381.825 767.261 387.383C767.824 390.353 768.108 393.574 768.08 396.753L768.372 402.645C768.441 403.876 768.517 405.212 768.49 406.972C768.441 409.518 768.42 411.166 768.302 412.655C768.24 413.58 768.198 414.582 768.164 415.57L767.969 421.837L767.268 426.63C767.06 427.827 766.942 428.947 766.824 430.06C766.637 431.868 766.429 433.656 766.006 435.367C765.554 437.155 765.173 438.929 764.798 440.668L764.243 443.2C763.362 446.803 762.286 450.17 761.231 453.433C760.766 454.901 760.302 456.341 759.871 457.774C758.879 459.965 758.206 461.808 757.54 463.617C756.631 466.086 755.694 468.653 754.376 471.011C748.047 485.056 739.672 498.565 729.589 510.947C719.888 522.78 708.029 532.797 694.359 540.727C680.641 548.052 668.123 552.713 652.447 556.017C666.332 558.229 680.807 561.999 694.269 569.178C708.022 577.164 719.874 587.181 729.589 599.014C739.672 611.403 748.047 624.912 754.487 639.179C755.687 641.315 756.631 643.868 757.54 646.344C758.206 648.153 758.879 649.996 759.726 651.805C760.309 653.628 760.78 655.081 761.252 656.556C762.293 659.812 763.362 663.165 764.229 666.712L764.798 669.3C765.173 671.039 765.554 672.806 766.006 674.601C766.429 676.319 766.637 678.093 766.824 679.908C766.942 681.021 767.06 682.134 767.255 683.268L767.997 689.292L768.164 694.384C768.198 695.379 768.24 696.381 768.302 697.32C768.42 698.802 768.455 700.45 768.483 702.697C768.517 704.756 768.441 706.085 768.372 707.323L768.08 713.375C768.108 716.394 767.824 719.615 767.227 722.787C766.63 728.143 765.596 733.771 764.194 739.315C763.119 743.558 761.828 747.579 760.579 751.426L759.788 753.881C758.817 756.01 758.157 757.833 757.498 759.634C756.589 762.132 755.638 764.726 754.292 767.098C747.929 781.178 739.526 794.722 729.423 807.139C719.618 819.048 707.648 829.1 693.825 837.044C674.84 847.13 653.328 852.438 631.47 852.438H630.686H459.589V804.21C459.589 774.889 484.125 751.043 514.296 751.043H637.535C618.681 733.882 607.947 710.363 607.947 685.967V627.479C607.947 593.741 582.508 565.526 549.415 560.233C582.473 554.994 607.947 526.696 607.947 492.965V288.27H540.422L540.408 452.299L540.422 455.144V559.307V561.137V743.482H392.05V751.043V767.244V794.924C392.05 814.137 385.604 832.564 373.405 848.209C370.137 852.403 366.466 856.361 362.462 860H630.693C654.244 859.777 677.796 857.029 700.66 851.819C719.007 847.652 736.847 841.579 753.682 833.76C773.548 824.112 791.16 810.29 804.559 793.783C808.896 788.433 812.872 782.764 816.397 776.914C820.207 770.264 823.586 763.272 826.397 756.184C829.505 748.143 831.858 739.774 833.363 731.343C834.425 726.689 835.063 722.063 835.272 717.479L835.757 709.946C835.889 707.58 835.945 705.181 835.986 703.281C836.028 701.028 835.917 698.635 835.764 696.054C835.646 693.522 835.494 691.045 835.286 688.611Z" fill="#3E4F67"/>
</g>
<g filter="url(#filter1_di_7844_7)">
<path d="M382.894 751.038V743.476H369.3H368.558C346.699 743.476 325.167 738.175 306.258 728.117C292.359 720.138 280.382 710.079 270.591 698.184C260.474 685.76 252.071 672.216 245.597 657.914C244.355 655.757 243.411 653.17 242.495 650.658C241.843 648.864 241.176 647.041 240.344 645.26L239.372 642.311C238.144 638.506 236.86 634.555 235.806 630.353C234.411 624.851 233.384 619.216 232.738 613.616C232.176 610.66 231.885 607.439 231.913 604.26L231.635 598.41C231.559 597.158 231.482 595.815 231.51 594.041C231.552 591.405 231.587 589.798 231.698 588.344C231.767 587.391 231.802 586.362 231.843 585.339L231.899 583.704C231.954 582.543 231.982 581.402 232.003 580.261L232.031 579.162L232.732 574.376C232.94 573.172 233.051 572.039 233.176 570.933C233.37 569.117 233.571 567.343 233.994 565.639C234.445 563.837 234.827 562.063 235.202 560.338L235.757 557.799C236.645 554.161 237.728 550.773 238.789 547.483L240.129 543.219C241.121 541.034 241.794 539.198 242.453 537.396C243.369 534.913 244.306 532.36 245.624 529.995C251.953 515.95 260.328 502.434 270.404 490.052C280.112 478.219 291.971 468.202 305.641 460.272C319.158 453.051 333.654 449.267 347.546 447.055C331.884 443.751 319.387 439.111 305.724 431.821C291.978 423.842 280.126 413.825 270.411 401.985C260.328 389.603 251.953 376.087 245.513 361.827C244.306 359.684 243.369 357.131 242.46 354.648C241.794 352.846 241.121 351.003 240.281 349.201C239.705 347.4 239.247 345.98 238.782 344.534C237.721 341.25 236.638 337.869 235.771 334.287L235.188 331.644C234.82 329.925 234.445 328.179 233.994 326.405C233.571 324.687 233.37 322.92 233.176 321.112C233.051 319.992 232.94 318.872 232.738 317.738L232.003 311.776C231.982 310.643 231.954 309.502 231.899 308.333L231.843 306.691C231.802 305.683 231.767 304.653 231.698 303.686C231.587 302.246 231.552 300.639 231.51 298.483C231.482 296.222 231.559 294.88 231.635 293.627L231.92 287.638C231.885 284.591 232.176 281.377 232.773 278.219C233.384 272.821 234.411 267.187 235.806 261.677C236.867 257.483 238.151 253.518 239.379 249.699L240.219 247.118C241.183 244.989 241.85 243.167 242.502 241.365C243.418 238.861 244.361 236.273 245.708 233.894C252.078 219.814 260.481 206.27 270.577 193.86C280.382 181.958 292.359 171.9 306.175 163.962C325.16 153.869 346.672 148.568 368.53 148.568H369.314H540.425V196.782C540.425 226.11 515.889 249.963 485.717 249.963H362.465C381.319 267.117 392.053 290.636 392.053 315.032V376.331C392.053 410.055 417.506 438.325 450.55 443.584C417.506 448.85 392.053 477.12 392.053 510.837V712.715H459.592L459.571 442.673V257.517H607.957V249.963L607.95 206.076C607.95 181.666 618.691 158.147 637.545 141H369.307C345.749 141.222 322.204 143.977 299.34 149.18C280.986 153.347 263.153 159.42 246.325 167.239C226.452 176.88 208.84 190.716 195.441 207.217C191.097 212.573 187.114 218.242 183.603 224.092C179.8 230.708 176.428 237.699 173.597 244.815C170.488 252.843 168.142 261.211 166.637 269.656C165.575 274.275 164.943 278.901 164.721 283.52L164.25 291.061C164.111 293.37 164.055 295.7 164.014 297.579C163.972 299.965 164.076 302.358 164.236 304.938C164.354 307.491 164.513 309.954 164.708 312.389C166.421 333.271 173.104 353.083 184.574 371.287C195.587 388.762 210.804 404.49 229.803 418.027C237.873 423.779 262.702 439.8 280.473 444.822L290.187 447.563L280.473 450.297C266.823 454.13 257.275 458.081 246.291 463.215C226.396 472.828 208.764 486.657 195.351 503.185C190.993 508.576 187.01 514.253 183.519 520.054C179.703 526.698 176.331 533.703 173.534 540.791L169.468 552.818C168.58 555.552 168.011 558.488 167.4 561.59C167.018 563.594 166.623 565.611 166.13 567.649L165.277 572.609L164.708 579.642C164.513 582.083 164.354 584.546 164.243 587.043C164.076 589.687 163.972 592.073 164.007 593.993C164.055 596.344 164.111 598.667 164.25 600.977L164.721 608.476C164.943 613.136 165.575 617.755 166.602 622.249C168.142 630.826 170.488 639.195 173.61 647.25C176.428 654.352 179.807 661.343 183.63 667.994C187.114 673.788 191.097 679.464 195.441 684.814C208.833 701.314 226.438 715.143 246.367 724.812C263.187 732.617 281.021 738.704 299.34 742.85C322.204 748.06 345.749 750.815 369.335 751.038H382.894Z" fill="#916750"/>
</g>
<defs>
<filter color-interpolation-filters="sRGB" filterUnits="userSpaceOnUse" height="618.038" width="481.538" x="358.462" y="249.961">
<feFlood flood-opacity="0" result="BackgroundImageFix"/>
<feColorMatrix in="SourceAlpha" result="hardAlpha" type="matrix" values="0 0 0 0 0 0 0 0 0 0 0 0 0 0 0 0 0 0 127 0"/>
<feOffset dy="4"/>
<feGaussianBlur stdDeviation="2"/>
<feComposite in2="hardAlpha" operator="out"/>
<feColorMatrix type="matrix" values="0 0 0 0 0 0 0 0 0 0 0 0 0 0 0 0 0 0 0.35 0"/>
<feBlend in2="BackgroundImageFix" mode="normal" result="effect1_dropShadow_7844_7"/>
<feBlend in="SourceGraphic" in2="effect1_dropShadow_7844_7" mode="normal" result="shape"/>
<feColorMatrix in="SourceAlpha" result="hardAlpha" type="matrix" values="0 0 0 0 0 0 0 0 0 0 0 0 0 0 0 0 0 0 127 0"/>
<feOffset dy="4"/>
<feGaussianBlur stdDeviation="1"/>
<feComposite in2="hardAlpha" k2="-1" k3="1" operator="arithmetic"/>
<feColorMatrix type="matrix" values="0 0 0 0 0 0 0 0 0 0 0 0 0 0 0 0 0 0 0.1 0"/>
<feBlend in2="shape" mode="normal" result="effect2_innerShadow_7844_7"/>
</filter>
<filter color-interpolation-filters="sRGB" filterUnits="userSpaceOnUse" height="618.038" width="481.545" x="160" y="141">
<feFlood flood-opacity="0" result="BackgroundImageFix"/>
<feColorMatrix in="SourceAlpha" result="hardAlpha" type="matrix" values="0 0 0 0 0 0 0 0 0 0 0 0 0 0 0 0 0 0 127 0"/>
<feOffset dy="4"/>
<feGaussianBlur stdDeviation="2"/>
<feComposite in2="hardAlpha" operator="out"/>
<feColorMatrix type="matrix" values="0 0 0 0 0 0 0 0 0 0 0 0 0 0 0 0 0 0 0.35 0"/>
<feBlend in2="BackgroundImageFix" mode="normal" result="effect1_dropShadow_7844_7"/>
<feBlend in="SourceGraphic" in2="effect1_dropShadow_7844_7" mode="normal" result="shape"/>
<feColorMatrix in="SourceAlpha" result="hardAlpha" type="matrix" values="0 0 0 0 0 0 0 0 0 0 0 0 0 0 0 0 0 0 127 0"/>
<feOffset dy="4"/>
<feGaussianBlur stdDeviation="1"/>
<feComposite in2="hardAlpha" k2="-1" k3="1" operator="arithmetic"/>
<feColorMatrix type="matrix" values="0 0 0 0 0 0 0 0 0 0 0 0 0 0 0 0 0 0 0.1 0"/>
<feBlend in2="shape" mode="normal" result="effect2_innerShadow_7844_7"/>
</filter>
</defs>
</svg>